<svg xmlns="http://www.w3.org/2000/svg" viewBox="0 0 841 741"><g data-name="Group 12036" opacity=".3"><path data-name="Path 10953" d="M234.155 547.988a218.56 218.56 0 014.99-316.839" fill="none" stroke="#6ae7ff" stroke-miterlimit="10" stroke-width=".5" stroke-dasharray="2"/><path data-name="Path 10954" d="M488.299 198.166a219.213 219.213 0 01105.527 122.677" fill="none" stroke="#6ae7ff" stroke-miterlimit="10" stroke-width=".5" stroke-dasharray="2"/><path data-name="Path 10955" d="M520.143 218.496q1.876 1.441 3.719 2.922a219.008 219.008 0 0125.159 23.713q5.583 6.163 10.684 12.731" fill="none" stroke="#6ae7ff" stroke-miterlimit="10" stroke-width="4"/><path data-name="Path 10956" d="M188.944 299.773a217.208 217.208 0 0125.738-42.1" fill="none" stroke="#6ae7ff" stroke-miterlimit="10" stroke-width="4"/><path data-name="Path 10957" d="M269.487 462.955l-181.9 111.928a356.805 356.805 0 0028.244 39.322l164.891-135.744a142.032 142.032 0 01-11.235-15.506z" fill="none" stroke="#6ae7ff" stroke-miterlimit="10" stroke-width=".867"/><path data-name="Path 10958" d="M345.764 366.606a49.06 49.06 0 1079.865-8.758" fill="none" stroke="#6ae7ff" stroke-miterlimit="10" stroke-width=".5"/><path data-name="Path 10959" d="M377.386 513.636l-2.628 28.6a151.541 151.541 0 0047.836-3.2l-6.351-28.009a123.027 123.027 0 01-38.857 2.609z" fill="none" stroke="#6ae7ff" stroke-miterlimit="10" stroke-width=".5"/><path data-name="Path 10960" d="M416.243 511.021l6.351 28.009q5.1-1.169 10.1-2.688l-8.247-27.507q-4.062 1.232-8.204 2.186z" fill="none" stroke="#6ae7ff" stroke-miterlimit="10" stroke-width=".5"/><path data-name="Path 10961" d="M483.458 419.256a99.014 99.014 0 01-62.363 64.729l27.97 81.455a185.343 185.343 0 00120.414-215.506l-84.108 18.572a98.7 98.7 0 01-1.913 50.75z" fill="none" stroke="#6ae7ff" stroke-miterlimit="10" stroke-width=".867"/><path data-name="Path 10962" d="M290.825 374.359a99.535 99.535 0 015.5-20.191l-80.383-30.951a186.633 186.633 0 00-12.524 64.776l86.129.825a99.918 99.918 0 011.278-14.459z" fill="none" stroke="#6ae7ff" stroke-miterlimit="10" stroke-width=".867"/><path data-name="Path 10963" d="M373.951 488.369l-12.8 85.173a184.281 184.281 0 0087.917-8.1l-27.97-81.455a98.617 98.617 0 01-47.147 4.382z" fill="none" stroke="#6ae7ff" stroke-miterlimit="10" stroke-width=".867"/><path data-name="Path 10964" d="M289.547 388.819l-86.129-.825a185.121 185.121 0 0049.6 128.424l62.974-58.748a99.068 99.068 0 01-26.445-68.851z" fill="none" stroke="#6ae7ff" stroke-miterlimit="10" stroke-width=".867"/><path data-name="Path 10965" d="M359.662 485.128a98.788 98.788 0 01-36.75-20.549l-56.943 64.637a184.606 184.606 0 0068.539 38.279 186.773 186.773 0 0026.639 6.045l12.8-85.173a99.883 99.883 0 01-14.285-3.239z" fill="none" stroke="#6ae7ff" stroke-miterlimit="10" stroke-width=".867"/><path data-name="Path 10966" d="M203.418 387.994a185.121 185.121 0 0049.6 128.424" fill="none" stroke="#6ae7ff" stroke-miterlimit="10" stroke-width="4.245"/><path data-name="Path 10967" d="M336.88 305.298a99.5 99.5 0 0118.913-8.958l-28.784-81.184a186.654 186.654 0 00-57.344 32.627l55.4 65.95a99.842 99.842 0 0111.815-8.435z" fill="#6ae7ff" opacity=".2"/><path data-name="Path 10968" d="M473.155 336.845l73.216-45.362a184.286 184.286 0 00-63.077-61.778l-43.993 74.039a98.632 98.632 0 0133.854 33.101z" fill="none" stroke="#6ae7ff" stroke-miterlimit="10" stroke-width=".867"/><path data-name="Path 10969" d="M451.89 465.613l55.114 66.192a185.125 185.125 0 0065.8-120.927l-85.541-9.986a99.068 99.068 0 01-35.373 64.721z" fill="none" stroke="#6ae7ff" stroke-miterlimit="10" stroke-width=".867"/><path data-name="Path 10970" d="M479.933 349.836a98.783 98.783 0 018.12 41.314l86.128 1.577a184.589 184.589 0 00-15.177-77.023 186.735 186.735 0 00-12.632-24.22l-73.216 45.362a99.87 99.87 0 016.777 12.99z" fill="#6ae7ff" opacity=".2"/><path data-name="Path 10971" d="M336.88 305.298a99.5 99.5 0 0118.913-8.958l-28.784-81.184a186.654 186.654 0 00-57.344 32.627l55.4 65.95a99.842 99.842 0 0111.815-8.435z" fill="none" stroke="#6ae7ff" stroke-miterlimit="10" stroke-width=".5"/><path data-name="Path 10972" d="M512.033 379.559a123.906 123.906 0 01-1.427 32.891l28.251 5.173a152.694 152.694 0 001.777-40.625q-.561-6.26-1.615-12.348l-28.312 4.8c.571 3.32 1.02 6.69 1.326 10.109z" fill="#6ae7ff" opacity=".4"/><path data-name="Path 10973" d="M438.836 503.404l11.582 26.275a152.039 152.039 0 0049.545-35.206l-20.915-19.683a123.414 123.414 0 01-40.212 28.614z" fill="#6ae7ff" opacity=".2"/><path data-name="Path 10975" d="M478.812 348.833l78.377-35.719a185.793 185.793 0 00-18.87-32.109l-69.627 50.686a99.461 99.461 0 0110.12 17.142z" fill="#fff" opacity=".2"/><path data-name="Path 10976" d="M512.033 379.559a123.906 123.906 0 01-1.427 32.891l28.251 5.173a152.694 152.694 0 001.777-40.625q-.561-6.26-1.615-12.348l-28.312 4.8c.571 3.32 1.02 6.69 1.326 10.109z" fill="none" stroke="#6ae7ff" stroke-miterlimit="10" stroke-width=".5"/><path data-name="Path 10977" d="M438.836 503.404l11.582 26.275a152.039 152.039 0 0049.545-35.206l-20.915-19.683a123.414 123.414 0 01-40.212 28.614z" fill="none" stroke="#6ae7ff" stroke-miterlimit="10" stroke-width=".5"/><path data-name="Path 10978" d="M326.56 496.807l-14.4 24.847a153.383 153.383 0 0044.38 17.045l6.068-28.066a124.486 124.486 0 01-36.048-13.826z" fill="none" stroke="#6ae7ff" stroke-miterlimit="10" stroke-width=".5"/><path data-name="Path 10979" d="M478.812 348.833l78.377-35.719a185.793 185.793 0 00-18.87-32.109l-69.627 50.686a99.461 99.461 0 0110.12 17.142z" fill="none" stroke="#6ae7ff" stroke-miterlimit="10" stroke-width=".5"/><path data-name="Line 22" fill="none" stroke="#6ae7ff" stroke-linecap="round" stroke-miterlimit="10" stroke-width=".75" stroke-dasharray="2" d="M196.627 586.279l131.346-134.026"/><path data-name="Line 23" fill="none" stroke="#6ae7ff" stroke-linecap="round" stroke-miterlimit="10" stroke-width=".75" stroke-dasharray="2" d="M471.336 362.046l178.075-59.902"/><path data-name="Path 10980" d="M465.778 430.573a87.252 87.252 0 005.558-68.527" fill="none" stroke="#6ae7ff" stroke-linecap="round" stroke-miterlimit="10" stroke-width=".75" stroke-dasharray="2"/><path data-name="Path 10981" d="M327.973 452.252a87.237 87.237 0 01-25.843-71.665" fill="none" stroke="#6ae7ff" stroke-linecap="round" stroke-miterlimit="10" stroke-width=".75" stroke-dasharray="2"/><path data-name="Path 10982" d="M465.779 430.573a87.158 87.158 0 01-137.806 21.68" fill="none" stroke="#6ae7ff" stroke-linecap="round" stroke-miterlimit="10" stroke-width=".75" stroke-dasharray="2"/><path data-name="Path 10983" d="M649.411 302.144a273.664 273.664 0 0111.205 128.882c-22.741 150.076-162.836 253.3-312.913 230.56a273.6 273.6 0 01-151.077-75.3" fill="none" stroke="#6ae7ff" stroke-miterlimit="10" stroke-width=".25"/><path data-name="Path 10984" d="M617.437 424.736a232.178 232.178 0 01-125.161 171.4c-90.578 45.573-196.786 26.343-265.87-40.248" fill="none" stroke="#6ae7ff" stroke-miterlimit="10" stroke-width=".5" stroke-dasharray="1.5"/><path data-name="Line 24" fill="none" stroke="#6ae7ff" stroke-linecap="round" stroke-miterlimit="10" stroke-width=".75" stroke-dasharray="2" d="M571.912 417.581l45.524 7.155"/><path data-name="Path 10987" d="M235.125 215.161a232.682 232.682 0 01260.95-33.195" fill="none" stroke="#6ae7ff" stroke-miterlimit="10" stroke-width="3" stroke-dasharray="1.5"/><path data-name="Line 25" fill="none" stroke="#6ae7ff" stroke-miterlimit="10" stroke-width=".25" stroke-dasharray="1.5" d="M504.502 165.679l-8.424 16.293"/><path data-name="Path 10988" d="M649.411 302.144a273.28 273.28 0 018.111 29.32" fill="none" stroke="#6ae7ff" stroke-miterlimit="10" stroke-width="4"/><path data-name="Path 10989" d="M617.436 424.736a233.8 233.8 0 01-26.261 76.379 231.407 231.407 0 01-98.9 95.024 234.267 234.267 0 01-33.4 13.705" fill="none" stroke="#6ae7ff" stroke-miterlimit="10" stroke-width="3"/><path data-name="Path 10990" d="M317.154 351.244a81.111 81.111 0 10132.792-14.427" fill="none" stroke="#6ae7ff" stroke-miterlimit="10" stroke-width="10" stroke-dasharray="2"/><path data-name="Line 26" fill="none" stroke="#6ae7ff" stroke-miterlimit="10" stroke-width=".5" d="M345.746 366.642l-31.863-17.517"/><path data-name="Line 27" fill="none" stroke="#6ae7ff" stroke-miterlimit="10" stroke-width=".5" d="M425.626 357.846l27.347-23.714"/><path data-name="Path 10991" d="M499.687 174.965l4.814-9.286a250.147 250.147 0 00-42.664-17.322l-3.042 10.006a239.776 239.776 0 0140.892 16.602z" fill="none" stroke="#6ae7ff" stroke-miterlimit="10" stroke-width=".5"/><path data-name="Path 10992" d="M424.739 150.66a244.657 244.657 0 0116.334 3.061l2.275-10.206a254.45 254.45 0 00-17.042-3.194 254.085 254.085 0 00-33.679-2.823l-.168 10.456a243.465 243.465 0 0132.28 2.706z" fill="none" stroke="#6ae7ff" stroke-miterlimit="10" stroke-width=".5"/><path data-name="Path 10993" d="M254.602 188.554a242.259 242.259 0 0135.982-19.851l-4.246-9.558a252.76 252.76 0 00-37.546 20.712z" fill="#6ae7ff" opacity=".3"/><path data-name="Path 10994" d="M362.974 149.251l-1.11-10.4a249.915 249.915 0 00-46.64 9.5l3.046 10.005a239.607 239.607 0 0144.704-9.105z" fill="none" stroke="#6ae7ff" stroke-miterlimit="10" stroke-width=".5"/><path data-name="Path 10995" d="M254.602 188.554a242.259 242.259 0 0135.982-19.851l-4.246-9.558a252.76 252.76 0 00-37.546 20.712z" fill="none" stroke="#6ae7ff" stroke-miterlimit="10" stroke-width=".5"/><path data-name="Path 10996" d="M345.165 279.289l-73.8-185.407a319.272 319.272 0 00-92.95 57.074l132.1 149.544a118.787 118.787 0 0134.65-21.211z" fill="none" stroke="#6ae7ff" stroke-miterlimit="10" stroke-width=".5" stroke-dasharray="2"/><path data-name="Path 10997" d="M445.84 492.683l96.2 174.821a319.428 319.428 0 0089.453-73.353L479.037 465.393a118.842 118.842 0 01-33.197 27.29z" fill="none" stroke="#6ae7ff" stroke-miterlimit="10" stroke-width=".5" stroke-dasharray="2"/><path data-name="Path 10998" d="M271.364 93.882a319.272 319.272 0 00-92.949 57.074" fill="none" stroke="#6ae7ff" stroke-miterlimit="10" stroke-width="4"/><g data-name="Group 12009" fill="#6ae7ff"><path data-name="Path 10999" d="M274.496 289.364l1.705 1.811 1.347-5.2 5.269-1.032-1.705-1.811-5.268 1.032z"/><path data-name="Path 11000" d="M277.046 292.072l1.705 1.811 1.347-5.2 5.268-1.032-1.705-1.811-5.268 1.032z"/></g><g data-name="Group 12010" fill="#6ae7ff"><path data-name="Path 11001" d="M286.906 302.543l1.705 1.811 1.347-5.2 5.269-1.032-1.705-1.811-5.268 1.032z"/><path data-name="Path 11002" d="M289.456 305.252l1.7 1.811 1.347-5.2 5.269-1.032-1.705-1.811-5.268 1.032z"/></g><g data-name="Group 12011" fill="#6ae7ff"><path data-name="Path 11003" d="M292.002 307.956l1.705 1.811 1.347-5.2 5.268-1.032-1.705-1.811-5.268 1.032z"/><path data-name="Path 11004" d="M294.552 310.668l1.705 1.811 1.347-5.2 5.268-1.032-1.705-1.811-5.268 1.032z"/></g><g data-name="Group 12012" fill="#6ae7ff"><path data-name="Path 11005" d="M594.238 565.999l-1.826-1.689-.985 5.278-5.185 1.393 1.826 1.689 5.185-1.393z"/><path data-name="Path 11006" d="M591.508 563.474l-1.826-1.689-.985 5.278-5.185 1.393 1.826 1.689 5.185-1.393z"/></g><g data-name="Group 12013" fill="#6ae7ff"><path data-name="Path 11007" d="M580.948 553.707l-1.826-1.689-.985 5.278-5.185 1.393 1.826 1.689 5.185-1.393z"/><path data-name="Path 11008" d="M578.217 551.181l-1.826-1.689-.985 5.278-5.185 1.393 1.826 1.689 5.185-1.393z"/></g><g data-name="Group 12014" fill="#6ae7ff"><path data-name="Path 11009" d="M575.49 548.659l-1.826-1.689-.985 5.278-5.185 1.393 1.826 1.689 5.185-1.393z"/><path data-name="Path 11010" d="M572.76 546.134l-1.826-1.689-.985 5.278-5.185 1.393 1.826 1.689 5.185-1.393z"/></g><g data-name="Group 12015" fill="#fff"><path data-name="Path 11011" d="M495.205 207.261l2.147 1.258-.172-5.365 4.765-2.472-2.147-1.258-4.765 2.472z"/><path data-name="Path 11012" d="M498.416 209.146l2.146 1.258-.172-5.365 4.765-2.472-2.147-1.258-4.765 2.472z"/></g><path data-name="Path 11013" d="M421.339 244.78a147.567 147.567 0 01108.578 184.349" fill="none" stroke="#6ae7ff" stroke-miterlimit="10" stroke-width=".338" stroke-dasharray="1.35"/><path data-name="Path 11014" d="M397.932 535.78a148 148 0 01-103.969-33.577" fill="none" stroke="#6ae7ff" stroke-miterlimit="10" stroke-width=".338" stroke-dasharray="1.35"/><path data-name="Path 11015" d="M372.429 535.273q-1.588-.171-3.171-.376a147.889 147.889 0 01-22.839-4.816q-5.386-1.588-10.636-3.579" fill="none" stroke="#6ae7ff" stroke-miterlimit="10" stroke-width="2.701"/><path data-name="Path 11016" d="M534.708 371.923a146.616 146.616 0 01-.023 33.315" fill="none" stroke="#6ae7ff" stroke-miterlimit="10" stroke-width="2.701"/><path data-name="Path 11017" d="M430.889 306.213l65.455-128.49a241.079 241.079 0 00-30.11-12.726L418.96 301.229a95.838 95.838 0 0111.929 4.984z" fill="none" stroke="#6ae7ff" stroke-miterlimit="10" stroke-width=".586"/><path data-name="Path 11018" d="M420.823 388.571a33.125 33.125 0 10-42.946 33.141" fill="none" stroke="#6ae7ff" stroke-miterlimit="10" stroke-width=".338"/><path data-name="Path 11019" d="M350.88 314.966l-8.545-17.407a102.328 102.328 0 00-26.442 18.671l13.512 13.911a83.041 83.041 0 0121.475-15.175z" fill="none" stroke="#6ae7ff" stroke-miterlimit="10" stroke-width=".338"/><path data-name="Path 11020" d="M329.405 330.137l-13.513-13.907q-2.528 2.469-4.872 5.1l14.429 12.951q1.904-2.134 3.956-4.144z" fill="none" stroke="#6ae7ff" stroke-miterlimit="10" stroke-width=".338"/><path data-name="Path 11021" d="M322.95 406.666a66.853 66.853 0 0113.17-59.24l-44.772-37.1a125.139 125.139 0 006.414 166.554l41.939-40.288a66.633 66.633 0 01-16.751-29.926z" fill="none" stroke="#6ae7ff" stroke-miterlimit="10" stroke-width=".586"/><path data-name="Path 11022" d="M449.757 364.777a67.187 67.187 0 013.933 13.571l57.212-10.439a126.008 126.008 0 00-15.568-41.737l-49.926 29.822a67.445 67.445 0 014.349 8.783z" fill="none" stroke="#6ae7ff" stroke-miterlimit="10" stroke-width=".586"/><path data-name="Path 11023" d="M361.746 328.315l-22.582-53.589a124.421 124.421 0 00-47.816 35.6l44.772 37.1a66.584 66.584 0 0125.626-19.111z" fill="none" stroke="#6ae7ff" stroke-miterlimit="10" stroke-width=".586"/><path data-name="Path 11024" d="M445.408 355.995l49.926-29.822a124.99 124.99 0 00-73.761-56.563l-15.626 56.009a66.889 66.889 0 0139.461 30.376z" fill="none" stroke="#6ae7ff" stroke-miterlimit="10" stroke-width=".586"/><path data-name="Path 11025" d="M371.121 325.156a66.7 66.7 0 0128.408-1.086l10.078-57.281a124.637 124.637 0 00-52.965 2.05 126.206 126.206 0 00-17.478 5.887l22.582 53.589a67.363 67.363 0 019.375-3.159z" fill="none" stroke="#6ae7ff" stroke-miterlimit="10" stroke-width=".586"/><path data-name="Path 11026" d="M495.334 326.173a124.99 124.99 0 00-73.761-56.563" fill="none" stroke="#6ae7ff" stroke-miterlimit="10" stroke-width="2.701"/><path data-name="Path 11027" d="M447.51 420.778a67.228 67.228 0 01-7.749 11.815l45.146 36.662a126.047 126.047 0 0021.571-38.975l-55.128-18.519a67.536 67.536 0 01-3.84 9.017z" fill="#6ae7ff" opacity=".2"/><path data-name="Path 11028" d="M357.876 450.535l-26.237 51.9a124.413 124.413 0 0058.082 13.409l-.691-58.144a66.587 66.587 0 01-31.154-7.165z" fill="none" stroke="#6ae7ff" stroke-miterlimit="10" stroke-width=".586"/><path data-name="Path 11029" d="M324.833 368.843l-55.046-18.759a124.991 124.991 0 004.618 92.836l52.81-24.336a66.89 66.89 0 01-2.382-49.741z" fill="none" stroke="#6ae7ff" stroke-miterlimit="10" stroke-width=".586"/><path data-name="Path 11030" d="M349.4 445.432a66.711 66.711 0 01-19.212-20.953l-50.19 29.388a124.642 124.642 0 0035.841 39.05 126.067 126.067 0 0015.8 9.514l26.237-51.9a67.459 67.459 0 01-8.476-5.099z" fill="#6ae7ff" opacity=".2"/><path data-name="Path 11031" d="M447.51 420.778a67.228 67.228 0 01-7.749 11.815l45.146 36.662a126.047 126.047 0 0021.571-38.975l-55.128-18.519a67.536 67.536 0 01-3.84 9.017z" fill="none" stroke="#6ae7ff" stroke-miterlimit="10" stroke-width=".338"/><path data-name="Path 11032" d="M320.446 439.595a83.691 83.691 0 01-10.752-19.46l-18.1 6.957a103.1 103.1 0 0013.27 24.043q2.525 3.41 5.275 6.548l14.63-12.723q-2.25-2.574-4.323-5.365z" fill="#fff" opacity=".4"/><path data-name="Path 11033" d="M319.064 342.474l-15.917-11.064a102.641 102.641 0 00-16.168 37.717l18.977 3.987a83.321 83.321 0 0113.108-30.64z" fill="#6ae7ff" opacity=".2"/><path data-name="Path 11034" d="M386.09 306.78l-.444-19.383a103.566 103.566 0 00-31.573 5.788l6.377 18.308a84.078 84.078 0 0125.64-4.713z" fill="#fff" opacity=".4"/><path data-name="Path 11035" d="M350.399 445.616l-32.6 48.155a125.423 125.423 0 0022.17 11.867l22.3-53.7a67.1 67.1 0 01-11.87-6.322z" fill="#6ae7ff" opacity=".2"/><path data-name="Path 11036" d="M320.446 439.595a83.691 83.691 0 01-10.752-19.46l-18.1 6.957a103.1 103.1 0 0013.27 24.043q2.525 3.41 5.275 6.548l14.63-12.723q-2.25-2.574-4.323-5.365z" fill="none" stroke="#6ae7ff" stroke-miterlimit="10" stroke-width=".338"/><path data-name="Path 11037" d="M319.064 342.474l-15.917-11.064a102.641 102.641 0 00-16.168 37.717l18.977 3.987a83.321 83.321 0 0113.108-30.64z" fill="none" stroke="#6ae7ff" stroke-miterlimit="10" stroke-width=".338"/><path data-name="Path 11038" d="M386.09 306.78l-.444-19.383a103.566 103.566 0 00-31.573 5.788l6.377 18.308a84.078 84.078 0 0125.64-4.713z" fill="none" stroke="#6ae7ff" stroke-miterlimit="10" stroke-width=".338"/><path data-name="Path 11039" d="M350.399 445.616l-32.6 48.155a125.423 125.423 0 0022.17 11.867l22.3-53.7a67.1 67.1 0 01-11.87-6.322z" fill="none" stroke="#6ae7ff" stroke-miterlimit="10" stroke-width=".338"/><path data-name="Line 28" fill="none" stroke="#6ae7ff" stroke-linecap="round" stroke-miterlimit="10" stroke-width=".506" stroke-dasharray="1.35" d="M429.497 209.512l-28.549 123.442"/><path data-name="Line 29" fill="none" stroke="#6ae7ff" stroke-linecap="round" stroke-miterlimit="10" stroke-width=".506" stroke-dasharray="1.35" d="M350.06 435.371l-81.553 97.163"/><path data-name="Path 11040" d="M329.161 393.925a58.9 58.9 0 0020.9 41.447" fill="none" stroke="#6ae7ff" stroke-linecap="round" stroke-miterlimit="10" stroke-width=".506" stroke-dasharray="1.35"/><path data-name="Path 11041" d="M400.948 332.955a58.9 58.9 0 0140.1 32.21" fill="none" stroke="#6ae7ff" stroke-linecap="round" stroke-miterlimit="10" stroke-width=".506" stroke-dasharray="1.35"/><path data-name="Path 11042" d="M329.157 393.924a58.846 58.846 0 0171.791-60.97" fill="none" stroke="#6ae7ff" stroke-linecap="round" stroke-miterlimit="10" stroke-width=".506" stroke-dasharray="1.35"/><path data-name="Path 11043" d="M268.507 532.534a184.766 184.766 0 01-51.793-70.331c-39.686-94.488 4.74-203.258 99.228-242.944a184.723 184.723 0 01113.555-9.747" fill="none" stroke="#6ae7ff" stroke-miterlimit="10" stroke-width=".169"/><path data-name="Path 11044" d="M243.811 450.637a157.014 157.014 0 01179.215-213.138" fill="none" stroke="#6ae7ff" stroke-miterlimit="10" stroke-width=".338" stroke-dasharray="1.013"/><path data-name="Line 30" fill="none" stroke="#6ae7ff" stroke-linecap="round" stroke-miterlimit="10" stroke-width=".506" stroke-dasharray="1.35" d="M272.563 438.746l-28.753 11.891"/><path data-name="Path 11047" d="M537.858 436.93a157.1 157.1 0 01-138.709 110.922" fill="none" stroke="#6ae7ff" stroke-miterlimit="10" stroke-width="2.026" stroke-dasharray="1.013"/><path data-name="Line 31" fill="none" stroke="#6ae7ff" stroke-miterlimit="10" stroke-width=".169" stroke-dasharray="1.013" d="M400.022 560.205l-.876-12.353"/><path data-name="Path 11048" d="M268.508 532.534a184.471 184.471 0 01-14.989-14.043" fill="none" stroke="#6ae7ff" stroke-miterlimit="10" stroke-width="2.701"/><path data-name="Path 11049" d="M243.811 450.637a157.847 157.847 0 01-11.733-53.256 156.234 156.234 0 0123.57-89.551 158.024 158.024 0 0114.429-19.648" fill="none" stroke="#6ae7ff" stroke-miterlimit="10" stroke-width="2.026"/><path data-name="Path 11050" d="M442.715 387.36a54.765 54.765 0 10-71.45 55.026" fill="none" stroke="#fff" stroke-miterlimit="10" stroke-width="6.752" stroke-dasharray="1.35"/><path data-name="Line 32" fill="none" stroke="#6ae7ff" stroke-miterlimit="10" stroke-width=".338" d="M420.821 388.545l24.525-1.114"/><path data-name="Line 33" fill="none" stroke="#6ae7ff" stroke-miterlimit="10" stroke-width=".338" d="M377.88 421.713l-7.418 23.286"/><path data-name="Path 11051" d="M399.53 553.161l.492 7.046a168.914 168.914 0 0030.678-5.024l-1.766-6.836a161.868 161.868 0 01-29.404 4.814z" fill="none" stroke="#6ae7ff" stroke-miterlimit="10" stroke-width=".338"/><path data-name="Path 11052" d="M451.273 540.802a165.435 165.435 0 01-10.491 3.981l2.28 6.682a171.989 171.989 0 0010.945-4.154 171.445 171.445 0 0020.4-10.22l-3.582-6.085a164.421 164.421 0 01-19.552 9.796z" fill="none" stroke="#6ae7ff" stroke-miterlimit="10" stroke-width=".338"/><path data-name="Path 11053" d="M535.995 459.114a163.617 163.617 0 01-13.753 24.1l5.809 4.014a170.76 170.76 0 0014.349-25.142z" fill="#6ae7ff" opacity=".3"/><path data-name="Path 11054" d="M487.363 519.887l4.3 5.6a168.725 168.725 0 0023.538-21.881l-5.275-4.695a161.77 161.77 0 01-22.563 20.976z" fill="none" stroke="#6ae7ff" stroke-miterlimit="10" stroke-width=".338"/><path data-name="Path 11055" d="M535.995 459.114a163.617 163.617 0 01-13.753 24.1l5.809 4.014a170.76 170.76 0 0014.349-25.142z" fill="none" stroke="#6ae7ff" stroke-miterlimit="10" stroke-width=".338"/><path data-name="Path 11056" d="M451.883 438.681l107.752 80.889a215.567 215.567 0 0033.491-65.59l-128.731-39.717a80.185 80.185 0 01-12.512 24.418z" fill="none" stroke="#6ae7ff" stroke-miterlimit="10" stroke-width=".338" stroke-dasharray="1.35"/><path data-name="Path 11057" d="M318.8 351.116l-116.935-66.91a215.667 215.667 0 00-25.749 73.74l133.151 20.576a80.226 80.226 0 019.533-27.406z" fill="none" stroke="#6ae7ff" stroke-miterlimit="10" stroke-width=".338" stroke-dasharray="1.35"/><path data-name="Path 11058" d="M559.636 519.571a215.57 215.57 0 0033.491-65.59" fill="none" stroke="#6ae7ff" stroke-miterlimit="10" stroke-width="2.701"/><path data-name="Path 11059" d="M432.603 496.401a115.157 115.157 0 01-36.842 8.758l4.344 61.225a177.006 177.006 0 00132.247-74.49l-50.247-35.229a114.755 114.755 0 01-49.502 39.736z" fill="none" stroke="#6ae7ff" stroke-miterlimit="10" stroke-width=".435"/><path data-name="Line 34" fill="none" stroke="#6ae7ff" stroke-miterlimit="10" stroke-width="3.376" stroke-dasharray="1.013" d="M465.466 411.319l129.164 35.693"/><path data-name="Path 11060" d="M482.105 456.665a115.515 115.515 0 01-86.34 48.494" fill="none" stroke="#6ae7ff" stroke-miterlimit="10" stroke-width="2.701"/><g data-name="Group 12016" fill="#6ae7ff"><path data-name="Path 11061" d="M489.065 408.016l-1.62-.444 1.052 3.469-2.672 2.449 1.62.444 2.673-2.448z"/><path data-name="Path 11062" d="M486.643 407.351l-1.62-.444 1.052 3.469-2.673 2.448 1.62.444 2.673-2.448z"/></g><g data-name="Group 12017" fill="#6ae7ff"><path data-name="Path 11063" d="M477.278 404.787l-1.62-.444 1.052 3.469-2.673 2.448 1.62.444 2.673-2.448z"/><path data-name="Path 11064" d="M474.856 404.123l-1.62-.444 1.052 3.469-2.673 2.448 1.62.444 2.673-2.448z"/></g><g data-name="Group 12018" fill="#6ae7ff"><path data-name="Path 11065" d="M472.438 403.46l-1.62-.444 1.052 3.469-2.673 2.448 1.62.444 2.673-2.448z"/><path data-name="Path 11066" d="M470.016 402.795l-1.62-.444 1.052 3.469-2.673 2.448 1.62.444 2.673-2.448z"/></g><g data-name="Group 12019" fill="#6ae7ff"><path data-name="Path 11067" d="M207.487 361.067l1.646.331-1.289-3.388 2.5-2.627-1.646-.331-2.5 2.627z"/><path data-name="Path 11068" d="M209.949 361.562l1.646.331-1.289-3.388 2.5-2.627-1.646-.331-2.5 2.627z"/></g><g data-name="Group 12020" fill="#6ae7ff"><path data-name="Path 11069" d="M219.47 363.475l1.646.331-1.289-3.388 2.5-2.627-1.646-.331-2.5 2.627z"/><path data-name="Path 11070" d="M221.932 363.971l1.646.331-1.289-3.388 2.5-2.627-1.646-.331-2.5 2.627z"/></g><g data-name="Group 12021" fill="#fff"><path data-name="Path 11071" d="M224.391 364.465l1.646.331-1.289-3.388 2.5-2.627-1.646-.331-2.5 2.627z"/><path data-name="Path 11072" d="M226.85 364.96l1.646.331-1.289-3.388 2.5-2.627-1.646-.331-2.5 2.627z"/></g><g data-name="Group 12022" fill="#fff"><path data-name="Path 11073" d="M363.332 433.604l1.537.676-.533-3.586 3-2.03-1.537-.676-3 2.03z"/><path data-name="Path 11074" d="M365.631 434.615l1.537.676-.533-3.586 3-2.03-1.537-.676-3 2.03z"/></g><g data-name="Group 12023" fill="#fff"><path data-name="Path 11075" d="M367.926 435.626l1.537.676-.533-3.586 3-2.03-1.537-.676-3 2.03z"/><path data-name="Path 11076" d="M370.224 436.638l1.537.676-.533-3.586 3-2.03-1.537-.676-3 2.03z"/></g><g data-name="Group 12024" fill="#6ae7ff"><path data-name="Path 11077" d="M390.752 532.971l-1.68.03 1.987 3.031-1.876 3.1 1.68-.03 1.876-3.1z"/><path data-name="Path 11078" d="M388.241 533.016l-1.68.03 1.987 3.031-1.876 3.1 1.68-.03 1.876-3.1z"/></g><path data-name="Path 11079" d="M400.657 317.66a73.7 73.7 0 01-11.553 146.293" fill="none" stroke="#6ae7ff" stroke-miterlimit="10" stroke-width="3.376" stroke-dasharray="1.013"/><path data-name="Path 11080" d="M316.539 471.813A109.159 109.159 0 01444.03 295.786" fill="none" stroke="#6ae7ff" stroke-miterlimit="10" stroke-width="5" stroke-dasharray="1.5"/><path data-name="Path 11081" d="M382.813 76.386c95.85-1.759 191.156 40.943 253.136 123.45a307.887 307.887 0 0161.831 195.633" fill="none" stroke="#6ae7ff" stroke-miterlimit="10" stroke-width=".707" stroke-dasharray="2.83"/><path data-name="Path 11082" d="M484.13 679.732a310.154 310.154 0 01-228.464-15.042" fill="none" stroke="#6ae7ff" stroke-miterlimit="10" stroke-width=".707" stroke-dasharray="2.83"/><path data-name="Path 11083" d="M678.251 276.762a307.359 307.359 0 0117 67.716" fill="none" stroke="#6ae7ff" stroke-miterlimit="10" stroke-width="5.66"/><path data-name="Path 11084" d="M455.333 368.86a69.415 69.415 0 10-70.315 89.321" fill="none" stroke="#6ae7ff" stroke-miterlimit="10" stroke-width=".707"/><path data-name="Path 11085" d="M275.536 255.062l-26.272-31a214.442 214.442 0 00-44.184 51.471l34.576 21.35a174.075 174.075 0 0135.88-41.821z" fill="none" stroke="#6ae7ff" stroke-miterlimit="10" stroke-width=".707"/><path data-name="Path 11086" d="M239.657 296.882l-34.576-21.35q-3.874 6.312-7.292 12.86l35.947 18.936q2.779-5.313 5.921-10.446z" fill="none" stroke="#6ae7ff" stroke-miterlimit="10" stroke-width=".707"/><path data-name="Path 11087" d="M265.693 455.706a140.1 140.1 0 01-3.545-127.126L152.18 276.085a262.24 262.24 0 0098.247 335.187l64.615-103.329a139.648 139.648 0 01-49.349-52.237z" fill="none" stroke="#6ae7ff" stroke-miterlimit="10" stroke-width="1.227"/><path data-name="Path 11088" d="M501.959 305.706a140.8 140.8 0 0114.935 25.566l110.927-50.485a264.071 264.071 0 00-52.992-76.85l-86.2 86.148a141.453 141.453 0 0113.33 15.621z" fill="none" stroke="#6ae7ff" stroke-miterlimit="10" stroke-width="1.227"/><path data-name="Path 11089" d="M304.449 276.632l-73.309-97.349a260.755 260.755 0 00-78.96 96.8l109.969 52.497a139.553 139.553 0 0142.3-51.948z" fill="none" stroke="#6ae7ff" stroke-miterlimit="10" stroke-width="1.227"/><path data-name="Path 11090" d="M488.627 290.08l86.2-86.148a261.933 261.933 0 00-178.833-77.206l-3.1 121.815a140.175 140.175 0 0195.733 41.539z" fill="none" stroke="#6ae7ff" stroke-miterlimit="10" stroke-width="1.227"/><path data-name="Path 11091" d="M321.884 265.416a139.778 139.778 0 0157.173-16.74l-8.823-121.562a261.18 261.18 0 00-106.586 31.263 264.31 264.31 0 00-32.508 20.908l73.309 97.349a141.481 141.481 0 0117.435-11.218z" fill="none" stroke="#6ae7ff" stroke-miterlimit="10" stroke-width="1.227"/><path data-name="Path 11092" d="M574.828 203.934a261.934 261.934 0 00-178.834-77.208" fill="none" stroke="#6ae7ff" stroke-miterlimit="10" stroke-width="5.66"/><path data-name="Path 11093" d="M526.046 420.657a140.807 140.807 0 01-9.7 27.975l110.5 51.409a264.094 264.094 0 0023.895-90.24l-121.5-9.428a141.431 141.431 0 01-3.195 20.284z" fill="#6ae7ff" opacity=".2"/><path data-name="Path 11094" d="M359.114 526.988l-26.768 118.888a260.744 260.744 0 00124.9-2.456l-31.155-117.806a139.538 139.538 0 01-66.977 1.374z" fill="none" stroke="#6ae7ff" stroke-miterlimit="10" stroke-width="1.227"/><path data-name="Path 11095" d="M250.169 377.878l-121.463-9.959a261.931 261.931 0 0056.883 186.3l94.869-76.474a140.173 140.173 0 01-30.289-99.867z" fill="none" stroke="#6ae7ff" stroke-miterlimit="10" stroke-width="1.227"/><path data-name="Path 11096" d="M526.046 420.657a140.807 140.807 0 01-9.7 27.975l110.5 51.409a264.094 264.094 0 0023.895-90.24l-121.5-9.428a141.431 141.431 0 01-3.195 20.284z" fill="none" stroke="#6ae7ff" stroke-miterlimit="10" stroke-width=".707"/><path data-name="Path 11097" d="M277.45 523.906a175.382 175.382 0 01-31.8-34.043l-33.224 23.4a216.028 216.028 0 0039.258 42.062q6.876 5.639 14.069 10.608l23.22-33.34q-5.88-4.077-11.523-8.687z" fill="#6ae7ff" opacity=".1"/><path data-name="Path 11098" d="M342.903 220.421l-10.82-39.168a217.033 217.033 0 00-61.2 27.916l22.325 33.945a176.18 176.18 0 0149.695-22.693z" fill="#6ae7ff" opacity=".2"/><path data-name="Path 11099" d="M277.45 523.906a175.382 175.382 0 01-31.8-34.043l-33.224 23.4a216.028 216.028 0 0039.258 42.062q6.876 5.639 14.069 10.608l23.22-33.34q-5.88-4.077-11.523-8.687z" fill="none" stroke="#6ae7ff" stroke-miterlimit="10" stroke-width=".707"/><path data-name="Path 11100" d="M224.954 327.244l-38.009-14.349a215.121 215.121 0 00-13.559 84.917l40.6-1.607a174.635 174.635 0 0110.968-68.961z" fill="none" stroke="#6ae7ff" stroke-miterlimit="10" stroke-width=".707"/><path data-name="Path 11101" d="M342.903 220.421l-10.82-39.168a217.033 217.033 0 00-61.2 27.916l22.325 33.945a176.18 176.18 0 0149.695-22.693z" fill="none" stroke="#6ae7ff" stroke-miterlimit="10" stroke-width=".707"/><path data-name="Path 11102" d="M341.403 520.815l-41.621 114.539a262.8 262.8 0 0051.121 12.777l17.834-120.542a140.609 140.609 0 01-27.334-6.774z" fill="none" stroke="#6ae7ff" stroke-miterlimit="10" stroke-width=".707"/><path data-name="Line 35" fill="none" stroke="#6ae7ff" stroke-linecap="round" stroke-miterlimit="10" stroke-width="1.061" stroke-dasharray="2.83" d="M381.349.541l5.14 265.465"/><path data-name="Line 36" fill="none" stroke="#6ae7ff" stroke-linecap="round" stroke-miterlimit="10" stroke-width="1.061" stroke-dasharray="2.83" d="M335.473 500.171L219.452 739.349"/><path data-name="Path 11103" d="M271.789 426.637a123.446 123.446 0 0063.684 73.534" fill="none" stroke="#6ae7ff" stroke-linecap="round" stroke-miterlimit="10" stroke-width="1.061" stroke-dasharray="2.83"/><path data-name="Path 11104" d="M386.489 266.006a123.43 123.43 0 0197.976 44.938" fill="none" stroke="#6ae7ff" stroke-linecap="round" stroke-miterlimit="10" stroke-width="1.061" stroke-dasharray="2.83"/><path data-name="Path 11105" d="M271.789 426.638a123.318 123.318 0 01114.7-160.632" fill="none" stroke="#6ae7ff" stroke-linecap="round" stroke-miterlimit="10" stroke-width="1.061" stroke-dasharray="2.83"/><path data-name="Path 11106" d="M219.451 739.349A387.216 387.216 0 0178.215 622.922C-50.777 451.208-16.144 207.437 155.57 78.445A387.106 387.106 0 01381.349.545" fill="none" stroke="#6ae7ff" stroke-miterlimit="10" stroke-width=".354"/><path data-name="Path 11107" d="M127.363 585.554c-60.829-82.186-82.584-191.459-49.009-296.268C122.118 152.659 246.805 64.478 382.517 60.728" fill="none" stroke="#6ae7ff" stroke-miterlimit="10" stroke-width=".707" stroke-dasharray="2.122"/><path data-name="Line 37" fill="none" stroke="#6ae7ff" stroke-linecap="round" stroke-miterlimit="10" stroke-width="1.061" stroke-dasharray="2.83" d="M179.709 546.679l-52.347 38.874"/><path data-name="Path 11110" d="M717.911 407.257a329.22 329.22 0 01-225.136 296.385" fill="none" stroke="#6ae7ff" stroke-miterlimit="10" stroke-width="4.245" stroke-dasharray="2.122"/><path data-name="Line 38" fill="none" stroke="#6ae7ff" stroke-miterlimit="10" stroke-width=".354" stroke-dasharray="2.122" d="M500.873 728.295l-8.101-24.655"/><path data-name="Path 11111" d="M219.452 739.349a386.665 386.665 0 01-37.644-20.871" fill="none" stroke="#6ae7ff" stroke-miterlimit="10" stroke-width="5.66"/><path data-name="Path 11112" d="M127.363 585.556a330.8 330.8 0 01-51.09-102.222 327.414 327.414 0 012.082-194.046 331.5 331.5 0 0119.27-47.311" fill="none" stroke="#6ae7ff" stroke-miterlimit="10" stroke-width="4.245"/><path data-name="Path 11113" d="M499.202 355.198a114.766 114.766 0 10-117.053 148.38" fill="none" stroke="#6ae7ff" stroke-miterlimit="10" stroke-width="14.149" stroke-dasharray="2.83"/><path data-name="Line 39" fill="none" stroke="#6ae7ff" stroke-miterlimit="10" stroke-width=".707" d="M455.314 368.808l49.269-14.81"/><path data-name="Line 40" fill="none" stroke="#6ae7ff" stroke-miterlimit="10" stroke-width=".707" d="M385.02 458.181l-3.162 51.117"/><path data-name="Path 11114" d="M496.268 714.229l4.6 14.066a353.991 353.991 0 0059.774-25.905l-7.087-12.99a339.192 339.192 0 01-57.287 24.829z" fill="none" stroke="#6ae7ff" stroke-miterlimit="10" stroke-width=".707"/><path data-name="Path 11115" d="M595.096 662.641q-9.476 7.118-19.282 13.458l8.051 12.413q10.215-6.639 20.117-14.042a359.361 359.361 0 0036.232-31.207l-10.391-10.534a344.554 344.554 0 01-34.727 29.912z" fill="none" stroke="#6ae7ff" stroke-miterlimit="10" stroke-width=".707"/><path data-name="Path 11116" d="M725.475 453.291a342.9 342.9 0 01-15.621 56.007l13.859 5.184a357.654 357.654 0 0016.3-58.434z" fill="#6ae7ff" opacity=".3"/><path data-name="Path 11117" d="M657.738 601.676l11.6 9.188a353.642 353.642 0 0036.637-56.509l-13.123-6.841a339.017 339.017 0 01-35.114 54.162z" fill="none" stroke="#6ae7ff" stroke-miterlimit="10" stroke-width=".707"/><path data-name="Path 11118" d="M725.475 453.291a342.9 342.9 0 01-15.621 56.007l13.859 5.184a357.654 357.654 0 0016.3-58.434z" fill="none" stroke="#6ae7ff" stroke-miterlimit="10" stroke-width=".707"/><path data-name="Path 11119" d="M544.09 454.803l260.358 109.254a451.731 451.731 0 0034.503-150.43l-281.926-14.846a168.057 168.057 0 01-12.935 56.022z" fill="none" stroke="#6ae7ff" stroke-miterlimit="10" stroke-width=".707" stroke-dasharray="2.83"/><path data-name="Path 11120" d="M804.448 564.057a451.731 451.731 0 0034.5-150.426" fill="none" stroke="#6ae7ff" stroke-miterlimit="10" stroke-width="5.66"/><path data-name="Path 11121" d="M534.439 581.964a241.289 241.289 0 01-70.388 36.648l40.152 122.2a370.938 370.938 0 00230.641-219.039l-120.136-45.885a240.471 240.471 0 01-80.269 106.076z" fill="none" stroke="#6ae7ff" stroke-miterlimit="10" stroke-width=".911"/><path data-name="Line 41" fill="none" stroke="#6ae7ff" stroke-miterlimit="10" stroke-width="7.075" stroke-dasharray="2.122" d="M557.694 392.249l280.747 6.452"/><path data-name="Path 11122" d="M614.707 475.886a242.077 242.077 0 01-150.656 142.726" fill="none" stroke="#6ae7ff" stroke-miterlimit="10" stroke-width="5.66"/><g data-name="Group 12025" fill="#6ae7ff"><path data-name="Path 11123" d="M603.96 373.462l-3.519-.073 3.919 6.512-4.18 6.343 3.519.073 4.18-6.343z"/><path data-name="Path 11124" d="M598.702 373.352l-3.519-.073 3.913 6.511-4.18 6.343 3.519.073 4.18-6.343z"/></g><g data-name="Group 12026" fill="#6ae7ff"><path data-name="Path 11125" d="M578.356 372.932l-3.518-.073 3.913 6.511-4.18 6.343 3.519.073 4.18-6.343z"/><path data-name="Path 11126" d="M573.094 372.819l-3.518-.073 3.913 6.511-4.18 6.343 3.519.073 4.18-6.343z"/></g><g data-name="Group 12027" fill="#6ae7ff"><path data-name="Path 11127" d="M567.844 372.71l-3.519-.073 3.913 6.511-4.18 6.343 3.518.073 4.18-6.343z"/><path data-name="Path 11128" d="M562.579 372.601l-3.518-.073 3.913 6.511-4.18 6.343 3.518.073 4.18-6.343z"/></g><g data-name="Group 12028" fill="#6ae7ff"><path data-name="Path 11129" d="M7.722 422.112l3.515-.17-4.353-6.226 3.732-6.616-3.515.17-3.732 6.616z"/><path data-name="Path 11130" d="M12.978 421.858l3.515-.17-4.353-6.226 3.732-6.616-3.515.17-3.732 6.616z"/></g><g data-name="Group 12029" fill="#6ae7ff"><path data-name="Path 11131" d="M33.306 420.877l3.515-.17-4.353-6.226 3.732-6.616-3.515.17-3.732 6.616z"/><path data-name="Path 11132" d="M38.562 420.624l3.515-.17-4.353-6.226 3.732-6.616-3.515.17-3.732 6.616z"/></g><g data-name="Group 12030" fill="#fff"><path data-name="Path 11133" d="M43.812 420.371l3.515-.17-4.353-6.226 3.728-6.616-3.515.17-3.732 6.616z"/><path data-name="Path 11134" d="M49.068 420.116l3.515-.17-4.353-6.226 3.732-6.616-3.515.17-3.732 6.616z"/></g><g data-name="Group 12031" fill="#6ae7ff"><path data-name="Path 11135" d="M361.537 489.789l3.47.588-2.917-7.015 5.063-5.662-3.47-.588-5.063 5.662z"/><path data-name="Path 11136" d="M366.726 490.668l3.47.588-2.918-7.015 5.063-5.662-3.47-.588-5.063 5.662z"/></g><g data-name="Group 12032" fill="#6ae7ff"><path data-name="Path 11137" d="M371.91 491.548l3.47.588-2.918-7.015 5.063-5.662-3.47-.588-5.064 5.662z"/><path data-name="Path 11138" d="M377.099 492.428l3.47.588-2.918-7.015 5.062-5.661-3.47-.588-5.064 5.662z"/></g><g data-name="Group 12033" fill="#6ae7ff"><path data-name="Path 11139" d="M468.102 677.693l-3.4.921 5.589 5.144-2.226 7.262 3.4-.921 2.226-7.262z"/><path data-name="Path 11140" d="M463.02 679.074l-3.4.921 5.589 5.144-2.226 7.262 3.4-.921 2.226-7.262z"/></g><path data-name="Path 11141" d="M378.072 235.073a154.45 154.45 0 0151.368 303.2" fill="none" stroke="#6ae7ff" stroke-miterlimit="10" stroke-width="7.075" stroke-dasharray="2.122"/><path data-name="Path 11142" d="M414.08 221.198a170.543 170.543 0 0153.333 17.356l41.753-80.753a262.168 262.168 0 00-224.667-7.878l36.337 83.31a169.96 169.96 0 0193.244-12.035z" fill="none" stroke="#6ae7ff" stroke-miterlimit="10" stroke-width=".644"/><path data-name="Line 42" fill="none" stroke="#6ae7ff" stroke-miterlimit="10" stroke-width="5" stroke-dasharray="1.5" d="M306.88 303.4L171.134 158.607"/><path data-name="Path 11143" d="M320.836 233.234a171.1 171.1 0 01146.576 5.321" fill="none" stroke="#fff" stroke-miterlimit="10" stroke-width="4"/><g data-name="Group 12034" fill="#fff"><path data-name="Path 11144" d="M453.195 354.041l-1.422-2.037-2.093 4.945-5.363.25 1.421 2.041 5.363-.249z"/><path data-name="Path 11145" d="M451.068 350.988l-1.421-2.041-2.093 4.945-5.363.249 1.422 2.041 5.363-.249z"/></g><g data-name="Group 12035" fill="#fff"><path data-name="Path 11146" d="M448.946 347.938l-1.421-2.041-2.094 4.945-5.363.249 1.421 2.041 5.363-.249z"/><path data-name="Path 11147" d="M446.821 344.885l-1.421-2.041-2.091 4.945-5.363.249 1.421 2.041 5.363-.25z"/></g></g></svg>