<svg xmlns="http://www.w3.org/2000/svg" width="22" height="24.385" viewBox="0 0 22 24.385">
  <path id="Path_65" data-name="Path 65" d="M46.093,269.563A10.444,10.444,0,0,0,29.9,260.836c-.186.281-.361.569-.526.865a10.057,10.057,0,1,1,7.618,17.83c.324.086.655.156.989.215A10.467,10.467,0,0,0,46.093,269.563Zm-1.22,0a9.228,9.228,0,0,0-16.395-5.817,12.421,12.421,0,0,0-.379,1.4,8.746,8.746,0,1,1,5.529,12.925,12.4,12.4,0,0,0,1.26.691c.248.021.5.032.754.032A9.241,9.241,0,0,0,44.873,269.563Zm-6.143,0a3.09,3.09,0,1,0-3.088,3.089A3.092,3.092,0,0,0,38.73,269.563Zm-3.088-11.718a11.658,11.658,0,0,0-3.635.58c-.185.165-.368.332-.545.507a11.423,11.423,0,0,1,8.971,21q.37-.007.734-.038a11.716,11.716,0,0,0-5.525-22.048Zm0-1.268c-.317,0-.63.016-.942.037-.153.076-.3.154-.454.234a13.108,13.108,0,0,1,1.4-.076,12.784,12.784,0,0,1,8.2,22.6q.248-.078.489-.165a12.979,12.979,0,0,0-8.685-22.631Zm2.3-1.031c-.1.018-.2.034-.3.054a14.093,14.093,0,0,1,9.452,22.184c.082-.056.162-.115.243-.172a14.194,14.194,0,0,0-9.4-22.066Zm5.717,14.016a8.013,8.013,0,0,0-15.809-1.852,12.251,12.251,0,0,0,3.74,8.76,8.007,8.007,0,0,0,12.069-6.907Zm-15.394,0a7.38,7.38,0,1,1,7.381,7.38A7.388,7.388,0,0,1,28.261,269.563Zm14.126,0a6.746,6.746,0,1,0-6.745,6.746A6.753,6.753,0,0,0,42.387,269.563Zm-12.761,0a6.015,6.015,0,1,1,6.015,6.015A6.022,6.022,0,0,1,29.626,269.563Zm11.542,0a5.527,5.527,0,1,0-5.527,5.528A5.532,5.532,0,0,0,41.168,269.563Zm-10.225,0a4.7,4.7,0,1,1,4.7,4.7A4.7,4.7,0,0,1,30.943,269.563Zm9.007,0a4.309,4.309,0,1,0-4.308,4.309A4.315,4.315,0,0,0,39.95,269.563Zm-7.642,0a3.334,3.334,0,1,1,3.333,3.333A3.338,3.338,0,0,1,32.308,269.563Z" transform="translate(-27.846 -255.547)" fill="#212121"/>
</svg>
