<svg xmlns="http://www.w3.org/2000/svg" width="368" height="398"><defs><clipPath id="a"><path data-name="Path 9262" d="M0 0h368v398H0z" transform="translate(1552 7603)" fill="#fff"/></clipPath></defs><g transform="translate(-1552 -7603)" clip-path="url(#a)"><path data-name="Path 9332" d="M2022.712 7969.753c0-142.957-116.32-259.289-259.29-259.289a257.78 257.78 0 00-142.433 42.759 319.313 319.313 0 00-13.044 21.465 248.463 248.463 0 01155.477-54.571c137.614 0 249.572 112 249.572 249.638 0 126.272-94.24 230.858-216.046 247.306 8.041 2.122 16.239 3.877 24.529 5.343 115.076-26.442 201.235-129.626 201.235-252.651zm-30.265 0c0-126.285-102.739-229.051-229.025-229.051-71.662 0-135.676 33.081-177.74 84.732a308.27 308.27 0 00-9.4 34.731c37.73-64.171 107.44-107.362 187.143-107.362 119.607 0 216.937 97.33 216.937 216.95 0 119.659-97.33 216.963-216.937 216.963a218.293 218.293 0 01-49.975-5.867 307.643 307.643 0 0031.274 17.143c6.155.511 12.389.8 18.7.8 126.284-.001 229.023-102.713 229.023-229.039zm-152.4 0a76.658 76.658 0 10-76.625 76.651 76.719 76.719 0 0076.625-76.651zm-76.625-290.72a289.255 289.255 0 00-90.18 14.38c-4.6 4.086-9.141 8.237-13.528 12.572a282.362 282.362 0 01103.708-19.71c156.276 0 283.465 127.189 283.465 283.478 0 113.87-67.524 212.222-164.592 257.246q9.174-.177 18.217-.942c91.358-49.058 153.631-145.511 153.631-256.3 0-160.304-130.438-290.723-290.721-290.723zm0-31.457c-7.871 0-15.637.393-23.376.93a360.912 360.912 0 00-11.263 5.815 325.448 325.448 0 0134.639-1.886c174.99 0 317.332 142.315 317.332 317.318 0 97.657-44.357 185.153-113.989 243.4q6.149-1.926 12.127-4.1c65.455-59.032 106.708-144.418 106.708-239.3 0-177.661-144.54-322.176-322.178-322.176zm56.968-25.577c-2.436.459-4.9.851-7.321 1.336 169.555 24.2 300.359 170.3 300.359 346.418a348.116 348.116 0 01-65.847 203.971c2.03-1.4 4.02-2.855 6.024-4.256a350.792 350.792 0 0062.233-199.715c0-174.924-128.145-320.435-295.448-347.753zm141.844 347.754c0-109.6-89.184-198.812-198.812-198.812-93.82 0-172.607 65.31-193.416 152.858a303.954 303.954 0 0092.786 217.329 197.407 197.407 0 00100.63 27.462c109.628.001 198.812-89.209 198.812-198.837zm-381.935 0c0-100.945 82.139-183.07 183.123-183.07 100.919 0 183.1 82.125 183.1 183.07 0 100.971-82.178 183.1-183.1 183.1-100.984 0-183.122-82.129-183.122-183.1zm350.478 0c0-92.275-75.08-167.342-167.355-167.342-92.3 0-167.407 75.067-167.407 167.342 0 92.3 75.106 167.381 167.407 167.381 92.275 0 167.355-75.081 167.355-167.381zm-316.6 0c0-82.283 66.947-149.23 149.243-149.23 82.27 0 149.2 66.947 149.2 149.23s-66.934 149.243-149.2 149.243c-82.294.001-149.241-66.943-149.241-149.243zm286.359 0c0-75.6-61.486-137.116-137.116-137.116s-137.14 61.516-137.14 137.116 61.525 137.142 137.142 137.142 137.116-61.542 137.116-137.142zm-253.7 0a116.568 116.568 0 01233.137 0c0 64.276-52.306 116.607-116.555 116.607a116.737 116.737 0 01-116.577-116.607zm223.472 0a106.9 106.9 0 10-106.89 106.9 107.049 107.049 0 00106.895-106.9zm-189.592 0a82.708 82.708 0 1182.7 82.7 82.805 82.805 0 01-82.696-82.7z" fill="#b2d234" opacity=".15"/></g></svg>