<svg xmlns="http://www.w3.org/2000/svg" width="20.483" height="20" viewBox="0 0 20.483 20">
  <g id="Layer_1" data-name="Layer 1" transform="translate(-1.993 -2.267)">
    <path id="Path_13579" data-name="Path 13579" d="M22.3,10.2,12.526,2.377a.469.469,0,0,0-.606,0L2.146,10.2a.489.489,0,0,0,.606.762l1.2-.909v9.627a2.629,2.629,0,0,0,2.658,2.59h3.694a.489.489,0,0,0,.489-.489V16.891a1.505,1.505,0,0,1,1.466-1.525,1.407,1.407,0,0,1,1.036.45,1.466,1.466,0,0,1,.43,1.075v4.887a.489.489,0,0,0,.489.489H17.93a2.619,2.619,0,0,0,2.639-2.59V10.069l1.114.889a.5.5,0,0,0,.3.108.469.469,0,0,0,.381-.186A.489.489,0,0,0,22.3,10.2Zm-2.707,9.48a1.642,1.642,0,0,1-1.671,1.613H14.705V16.9a2.5,2.5,0,0,0-.7-1.759,2.385,2.385,0,0,0-1.74-.743,2.473,2.473,0,0,0-2.443,2.5v4.388h-3.2a1.652,1.652,0,0,1-1.691-1.613V9.258l7.32-5.864,7.34,5.864Z" transform="translate(0)" fill="#212121"/>
  </g>
</svg>
