<svg xmlns="http://www.w3.org/2000/svg" width="19.936" height="20" viewBox="0 0 19.936 20">
  <g id="news-report" transform="translate(-1 -0.59)">
    <path id="Path_13591" data-name="Path 13591" d="M12.079,55.077H19.8a.389.389,0,1,0,0-.777h-7.72a.389.389,0,1,0,0,.777Z" transform="translate(-8.317 -41.785)" fill="#212121"/>
    <path id="Path_13592" data-name="Path 13592" d="M21.51,65H12.079a.389.389,0,0,0,0,.777H21.51a.389.389,0,1,0,0-.777Z" transform="translate(-8.317 -50.109)" fill="#212121"/>
    <path id="Path_13594" data-name="Path 13594" d="M28.018,44.337h6.019a.389.389,0,1,0,0-.777H28.029a.389.389,0,1,0,0,.777Z" transform="translate(-24.156 -33.43)" fill="#212121"/>
    <path id="Path_13595" data-name="Path 13595" d="M17.026,24.937l-4.833-4.6a.389.389,0,0,0-.26-.1H1.384A.389.389,0,0,0,1,20.623V35.481a.389.389,0,0,0,.389.389H14.97a2.178,2.178,0,0,0,2.176-2.176V25.217a.386.386,0,0,0-.12-.28Zm-3.306-.111a1.4,1.4,0,0,1-1.4-1.4v-1.9l3.464,3.3Zm2.649,8.868a1.4,1.4,0,0,1-1.4,1.4H1.773V21.007h9.769v2.42a2.18,2.18,0,0,0,2.176,2.178h2.651Z" transform="translate(0 -15.279)" fill="#212121"/>
    <path id="Path_13596" data-name="Path 13596" d="M32.12,5.463s-5-4.767-5-4.769a.391.391,0,0,0-.264-.1H15.919a.389.389,0,0,0-.389.389V3.8a.389.389,0,1,0,.777,0V1.358H26.463V3.889A2.245,2.245,0,0,0,28.7,6.132h2.76v8.4A1.465,1.465,0,0,1,30,16h-.355a.389.389,0,1,0,0,.777H30a2.245,2.245,0,0,0,2.24-2.247V5.743a.386.386,0,0,0-.12-.28Zm-1.246-.109H28.7A1.465,1.465,0,0,1,27.24,3.889v-2l3.639,3.464Z" transform="translate(-11.304)" fill="#212121"/>
  </g>
</svg>
