<svg xmlns="http://www.w3.org/2000/svg" width="19.998" height="20" viewBox="0 0 19.998 20">
  <g id="phone-call" transform="translate(0.98 0)">
    <g id="Group_12016" data-name="Group 12016" transform="translate(-0.98 0)">
      <g id="Group_12015" data-name="Group 12015">
        <path id="Path_13599" data-name="Path 13599" d="M19.011,16.461a1.205,1.205,0,0,0-.464-.828l-3.854-2.979a2.02,2.02,0,0,0-2.254-.152l-.709.41a1.221,1.221,0,0,1-1.362-.09,23.623,23.623,0,0,1-2.246-1.958A23.344,23.344,0,0,1,6.194,8.652a1.221,1.221,0,0,1-.086-1.359l.41-.71a2.021,2.021,0,0,0-.151-2.255L3.386.473A1.213,1.213,0,0,0,1.652.28C1,.82.157,1.525-.135,1.818A3.369,3.369,0,0,0-.98,4.412c0,1.431,2.627,6.754,5.791,9.786,3.042,3.176,8.365,5.8,9.8,5.8a3.362,3.362,0,0,0,2.592-.845c.316-.315,1.1-1.256,1.538-1.787A1.2,1.2,0,0,0,19.011,16.461Zm-.888.4c-.732.887-1.274,1.518-1.487,1.732a2.53,2.53,0,0,1-2.028.61c-1.1,0-6.258-2.463-9.232-5.568C2.284,10.669-.18,5.511-.18,4.412A2.53,2.53,0,0,1,.43,2.384C.642,2.172,1.256,1.644,2.161.9A.409.409,0,0,1,2.425.8l.046,0a.411.411,0,0,1,.282.159l2.98,3.853a1.226,1.226,0,0,1,.091,1.366l-.41.71A2.019,2.019,0,0,0,5.56,9.139a23.992,23.992,0,0,0,2,2.291A24.461,24.461,0,0,0,9.88,13.456a2.017,2.017,0,0,0,2.249.15h0l.709-.41a1.225,1.225,0,0,1,1.366.093l3.853,2.978a.415.415,0,0,1,.158.283A.407.407,0,0,1,18.123,16.859Z" transform="translate(0.98 0)" fill="#212121"/>
        <path id="Path_13600" data-name="Path 13600" d="M347.828,21.279a7.6,7.6,0,0,1,4.545,4.545.4.4,0,0,0,.376.263.385.385,0,0,0,.136-.025.4.4,0,0,0,.239-.513,8.392,8.392,0,0,0-5.022-5.022.4.4,0,1,0-.274.751Z" transform="translate(-333.949 -19.703)" fill="#212121"/>
        <path id="Path_13601" data-name="Path 13601" d="M319.765,98.272A4.425,4.425,0,0,1,322.4,100.9a.4.4,0,0,0,.754-.271,5.24,5.24,0,0,0-3.113-3.113.4.4,0,1,0-.272.752Z" transform="translate(-306.981 -93.687)" fill="#212121"/>
        <path id="Path_13602" data-name="Path 13602" d="M291.741,175.27a1.184,1.184,0,0,1,.718.718.4.4,0,0,0,.377.266.382.382,0,0,0,.134-.024.4.4,0,0,0,.242-.511,1.977,1.977,0,0,0-1.2-1.2.4.4,0,1,0-.269.753Z" transform="translate(-280.051 -167.677)" fill="#212121"/>
      </g>
    </g>
  </g>
</svg>
