<svg xmlns="http://www.w3.org/2000/svg" width="20.001" height="20" viewBox="0 0 20.001 20">
  <g id="Layer_19" data-name="Layer 19" transform="translate(0.002 0.001)">
    <path id="Path_13590" data-name="Path 13590" d="M20,10a.417.417,0,0,0-.224-.37l-2.5-1.3a.417.417,0,0,0-.386.739L18.681,10,10,14.529,1.316,10l3.458-1.8L4.8,8.174l5,2.612a.419.419,0,0,0,.386,0l9.583-5a.417.417,0,0,0,0-.739l-9.583-5a.417.417,0,0,0-.386,0l-9.583,5a.417.417,0,0,0,0,.739L3.907,7.708.222,9.63a.417.417,0,0,0,0,.739l9.583,5a.419.419,0,0,0,.386,0L15.2,12.757l.025.021,3.459,1.8L10,19.113l-8.682-4.53,1.792-.935a.417.417,0,0,0-.386-.739l-2.5,1.3a.417.417,0,0,0,0,.739l9.583,5a.419.419,0,0,0,.386,0l9.583-5a.417.417,0,0,0,0-.739l-3.684-1.922,3.684-1.922A.417.417,0,0,0,20,10ZM10,.886l8.682,4.53L10,9.946,1.316,5.416Z" transform="translate(0 0)" fill="#212121"/>
  </g>
</svg>
